<svg width="20" height="20" viewBox="0 0 20 20" fill="none" xmlns="http://www.w3.org/2000/svg">
<path d="M15.6875 9.71875C15.5 9.90625 15.25 10 15 10C14.7188 10 14.4688 9.90625 14.2812 9.71875L11 6.4375V16C11 16.5625 10.5312 17 10 17C9.5 17 9 16.5625 9 16V6.4375L5.6875 9.71875C5.3125 10.125 4.65625 10.125 4.28125 9.71875C3.875 9.34375 3.875 8.6875 4.28125 8.3125L9.28125 3.3125C9.65625 2.90625 10.3125 2.90625 10.6875 3.3125L15.6875 8.3125C16.0938 8.6875 16.0938 9.34375 15.6875 9.71875Z" fill="black" fill-opacity="0.8"/>
</svg>
