<svg width="30" height="30" viewBox="0 0 30 30" fill="none" xmlns="http://www.w3.org/2000/svg">
<path d="M15.625 5.625V17.8906L19.5312 13.9453C19.7656 13.7109 20.1953 13.7109 20.4297 13.9453C20.6641 14.1797 20.6641 14.6094 20.4297 14.8438L15.4297 19.8438C15.1953 20.0781 14.7656 20.0781 14.5312 19.8438L9.53125 14.8438C9.29688 14.6094 9.29688 14.1797 9.53125 13.9453C9.76562 13.7109 10.1953 13.7109 10.4297 13.9453L14.375 17.8906V5.625C14.375 5.3125 14.6484 5 15 5C15.3125 5 15.625 5.3125 15.625 5.625ZM10.4688 17.5L11.7188 18.75H7.5C6.79688 18.75 6.25 19.3359 6.25 20V22.5C6.25 23.2031 6.79688 23.75 7.5 23.75H22.5C23.1641 23.75 23.75 23.2031 23.75 22.5V20C23.75 19.3359 23.1641 18.75 22.5 18.75H18.2422L19.4922 17.5H22.5C23.8672 17.5 25 18.6328 25 20V22.5C25 23.9062 23.8672 25 22.5 25H7.5C6.09375 25 5 23.9062 5 22.5V20C5 18.6328 6.09375 17.5 7.5 17.5H10.4688ZM21.875 21.25C21.875 21.7969 21.4453 22.1875 20.9375 22.1875C20.3906 22.1875 20 21.7969 20 21.25C20 20.7422 20.3906 20.3125 20.9375 20.3125C21.4453 20.3125 21.875 20.7422 21.875 21.25Z" fill="black"/>
</svg>
