<svg width="30" height="30" viewBox="0 0 30 30" fill="none" xmlns="http://www.w3.org/2000/svg">
<path d="M16.5625 11.25H16.25H11.875C8.75 11.25 6.25 13.7891 6.25 16.875C6.25 18.7109 6.83594 20 7.57812 20.9375C7.5 20.6641 7.5 20.3516 7.5 20C7.5 17.2656 9.72656 15 12.5 15H16.25H16.5625C17.0703 15 17.5 15.4297 17.5 15.9375V16.25V16.875V18.75L23.75 13.125L17.5 7.5V9.375V10V10.3125C17.5 10.8594 17.0703 11.25 16.5625 11.25ZM16.25 16.875V16.25H15H12.5C10.4297 16.25 8.75 17.9297 8.75 20C8.75 21.2109 9.21875 21.875 9.60938 22.2266C9.80469 22.4219 10 22.6953 10 23.0078C10 23.4375 9.64844 23.75 9.21875 23.75C9.10156 23.75 8.98438 23.75 8.90625 23.7109C8.16406 23.2812 5 21.3281 5 16.875C5 13.0859 8.04688 10 11.875 10H15H16.25V9.375V8.75V7.5C16.25 7.03125 16.5234 6.5625 16.9922 6.36719C17.4219 6.17188 17.9688 6.25 18.3203 6.60156L24.5703 12.2266C24.8438 12.4609 25 12.7734 25 13.125C25 13.5156 24.8438 13.8281 24.5703 14.0625L18.3203 19.6875C17.9688 20.0391 17.4219 20.1172 16.9922 19.9219C16.5234 19.7266 16.25 19.2578 16.25 18.75V17.5V16.875Z" fill="black"/>
</svg>
